<svg width="125" height="128" viewBox="0 0 125 128" fill="none" xmlns="http://www.w3.org/2000/svg">
<path d="M75.9032 0.400879C72.0075 0.45401 68.9015 3.695 68.9541 7.62669C68.9752 8.83808 69.3016 10.0388 69.9017 11.0908L76.0191 21.7808V21.7702L105.7 73.6472H117.935C120.336 73.6472 122.568 74.8692 123.863 76.8988L82.1469 3.99253C82.168 4.02441 82.1785 4.06692 82.1996 4.09879C82.1785 4.05629 82.1575 4.01378 82.1259 3.96065C80.8834 1.79291 78.6092 0.432757 76.1243 0.400879H75.9032Z" fill="url(#paint0_linear_173_4283)"/>
<path d="M36.051 22.9919C33.3556 23.0026 30.9023 24.5433 29.7231 26.9874L1.14746 76.8986C2.44252 74.869 4.67467 73.647 7.07527 73.647H19.2994L36.0721 44.3612V44.3506L42.0946 33.82C44.1267 30.4621 43.0844 26.0841 39.7677 24.0333C38.6517 23.3426 37.3671 22.9813 36.051 22.9919Z" fill="url(#paint1_linear_173_4283)"/>
<path d="M105.711 73.647H69.1439H69.1334L70.997 76.888C73.1239 80.1821 72.1973 84.592 68.9333 86.7384C67.7857 87.4929 66.4485 87.8967 65.0797 87.8861H117.935C121.831 87.8861 124.99 84.6982 124.99 80.7665C124.99 76.8348 121.831 73.647 117.935 73.647H105.711Z" fill="url(#paint2_linear_173_4283)"/>
<path d="M19.2996 73.647H7.0755C3.17978 73.6364 0.0105553 76.8136 2.63336e-05 80.7453C-0.0105026 84.677 3.13766 87.8755 7.03338 87.8861H34.0928C30.1971 87.8861 27.0384 84.7089 27.0279 80.7772C27.0279 79.4064 27.4175 78.0569 28.165 76.8986L30.0076 73.647H19.2996Z" fill="url(#paint3_linear_173_4283)"/>
<path d="M49.5809 39.4948L41.4315 53.7339L30.0391 73.6474H30.0181L28.1755 76.9096C26.1434 80.2675 27.1858 84.6455 30.5024 86.6963C33.8296 88.7472 38.1675 87.6952 40.1996 84.3479C40.2312 84.2842 40.2733 84.231 40.3049 84.1673L40.3154 84.1354L49.5704 67.973L57.7198 53.7232L76.0192 21.7597L70.0808 11.3673C68.6594 9.13575 68.5962 6.28793 69.8913 3.99268L49.5809 39.4948Z" fill="url(#paint4_linear_173_4283)"/>
<path d="M43.1265 30.1328C43.1265 31.4929 42.737 32.8318 41.9999 33.9794L36.0616 44.3612L41.4314 53.7335L49.5808 67.9726L58.8463 84.1669C60.0782 86.4622 62.4577 87.8967 65.0479 87.8967C68.9436 87.8967 72.1339 84.7089 72.1339 80.7772C72.1339 79.4064 71.7338 78.0569 70.9967 76.9093L69.1331 73.647L57.7302 53.7229L49.5808 39.4838L42.2 26.5942C42.8107 27.6675 43.1265 28.8895 43.1265 30.1328Z" fill="url(#paint5_linear_173_4283)"/>
<path fill-rule="evenodd" clip-rule="evenodd" d="M33.4928 96.8335H24.0799V102.434H33.4297C35.4302 102.434 37.0516 104.07 37.0516 106.089V109.702H25.733C20.7317 109.755 16.7096 113.899 16.7623 118.947C16.8149 123.92 20.7949 127.947 25.733 128H41.8844C42.2529 128 42.5477 127.703 42.5477 127.331V105.983C42.5583 100.935 38.4941 96.8335 33.4928 96.8335ZM37.0516 121.805C37.0516 122.177 36.7568 122.475 36.3883 122.475H25.8488C23.8483 122.475 22.2268 120.838 22.2268 118.819C22.2268 116.8 23.8483 115.164 25.8488 115.164H37.0516V121.805Z" fill="white"/>
<path fill-rule="evenodd" clip-rule="evenodd" d="M20.8261 102.434V96.8335H9.0863C4.07451 96.8335 0.0208511 100.935 0.0208511 105.983V127.32C0.0208511 127.692 0.315662 127.989 0.684177 127.989H5.5275V106.078C5.5275 104.059 7.14897 102.423 9.14947 102.423L20.8261 102.434Z" fill="white"/>
<path fill-rule="evenodd" clip-rule="evenodd" d="M124.99 96.8447H99.0779V101.733C99.0779 102.105 99.3727 102.402 99.7412 102.402H117.461L99.0989 122.433L99.0884 127.99H124.337C124.705 127.99 125 127.693 125 127.321V122.433H106.648L124.99 102.402V96.8447Z" fill="white"/>
<path fill-rule="evenodd" clip-rule="evenodd" d="M86.7692 115.132C91.7705 115.132 95.8347 111.041 95.8347 105.983C95.8347 100.925 91.781 96.8335 86.7692 96.8335H79.0199C74.0186 96.8335 69.9544 100.925 69.9544 105.983V118.84C69.9544 123.888 74.0081 127.989 79.0199 127.989H95.8347V122.389H79.0831C77.0826 122.389 75.4611 120.753 75.4611 118.734V115.121L86.7692 115.132ZM75.4611 109.67V106.015C75.4611 103.996 77.0826 102.359 79.0831 102.359H86.6639C88.6644 102.359 90.2859 103.996 90.2859 106.015C90.2859 108.034 88.6644 109.659 86.6639 109.67H75.4611Z" fill="white"/>
<path fill-rule="evenodd" clip-rule="evenodd" d="M61.5525 96.8335L51.3078 108.002V97.5029C51.3078 97.131 51.013 96.8335 50.6445 96.8335H45.7906V127.32C45.7906 127.692 46.0854 127.989 46.4539 127.989H51.2973V116.832L61.5104 127.989H69.0596L54.7823 112.422L69.0702 96.8335H61.5525Z" fill="white"/>
<defs>
<linearGradient id="paint0_linear_173_4283" x1="72.4884" y1="1.34899" x2="118.375" y2="80.0993" gradientUnits="userSpaceOnUse">
<stop offset="1" stop-color="white"/>
</linearGradient>
<linearGradient id="paint1_linear_173_4283" x1="39.6024" y1="23.9355" x2="6.81655" y2="80.2022" gradientUnits="userSpaceOnUse">
<stop offset="1" stop-color="white"/>
</linearGradient>
<linearGradient id="paint2_linear_173_4283" x1="124.991" y1="80.7671" x2="65.0787" y2="80.7671" gradientUnits="userSpaceOnUse">
<stop offset="1" stop-color="white"/>
</linearGradient>
<linearGradient id="paint3_linear_173_4283" x1="0.00421687" y1="80.7618" x2="34.1013" y2="80.7618" gradientUnits="userSpaceOnUse">
<stop offset="1" stop-color="white"/>
</linearGradient>
<linearGradient id="paint4_linear_173_4283" x1="30.5752" y1="86.9361" x2="76.6231" y2="7.90904" gradientUnits="userSpaceOnUse">
<stop offset="1" stop-color="white"/>
</linearGradient>
<linearGradient id="paint5_linear_173_4283" x1="68.5882" y1="86.9429" x2="35.6493" y2="30.414" gradientUnits="userSpaceOnUse">
<stop offset="1" stop-color="white"/>
</linearGradient>
</defs>
</svg>
