<svg version="1.2" xmlns="http://www.w3.org/2000/svg" viewBox="0 0 49 30" width="49" height="30">
	<title>logo</title>
	<defs>
		<linearGradient id="g1" x2="1" gradientUnits="userSpaceOnUse" gradientTransform="matrix(11.963,20.72,-3.311,1.911,27.123,3.334)">
			<stop offset="0" stop-color="#8dd3d3"/>
			<stop offset="1" stop-color="#00b3ae"/>
		</linearGradient>
		<linearGradient id="g2" x2="1" gradientUnits="userSpaceOnUse" gradientTransform="matrix(-8.547,14.804,-3.288,-1.899,18.282,9.249)">
			<stop offset="0" stop-color="#86d3e6"/>
			<stop offset="1" stop-color="#00ade5"/>
		</linearGradient>
		<linearGradient id="g3" x2="1" gradientUnits="userSpaceOnUse" gradientTransform="matrix(-15.96,0,0,-3.729,41.062,24.133)">
			<stop offset="0" stop-color="#8dd3d3"/>
			<stop offset="1" stop-color="#00b3ae"/>
		</linearGradient>
		<linearGradient id="g4" x2="1" gradientUnits="userSpaceOnUse" gradientTransform="matrix(9.083,0,0,3.73,7.767,24.131)">
			<stop offset="0" stop-color="#86d3e6"/>
			<stop offset="1" stop-color="#00ade5"/>
		</linearGradient>
		<linearGradient id="g5" x2="1" gradientUnits="userSpaceOnUse" gradientTransform="matrix(12.005,-20.793,3.307,1.909,15.958,25.748)">
			<stop offset="0" stop-color="#8dd3d3"/>
			<stop offset="1" stop-color="#00b3ae"/>
		</linearGradient>
		<linearGradient id="g6" x2="1" gradientUnits="userSpaceOnUse" gradientTransform="matrix(-8.587,-14.873,3.286,-1.897,26.003,25.75)">
			<stop offset="0" stop-color="#86d3e6"/>
			<stop offset="1" stop-color="#00ade5"/>
		</linearGradient>
	</defs>
	<style>
		.s0 { fill: url(#g1) } 
		.s1 { fill: url(#g2) } 
		.s2 { fill: url(#g3) } 
		.s3 { fill: url(#g4) } 
		.s4 { fill: url(#g5) } 
		.s5 { fill: url(#g6) } 
	</style>
	<g>
		<g id="Layer_1-2">
			<path class="s0" d="m28 3.1c-1.1 0-1.9 0.8-1.9 1.9q0 0.5 0.3 0.9l1.6 2.8 7.9 13.6h3.3c0.6 0 1.2 0.3 1.6 0.8l-11.2-19.1q0.1 0 0.1 0.1 0-0.1-0.1-0.1c-0.3-0.6-0.9-0.9-1.6-0.9z"/>
			<path class="s1" d="m17.4 9c-0.7 0-1.4 0.4-1.7 1l-7.6 13.1c0.3-0.5 0.9-0.8 1.6-0.8h3.2l4.5-7.7 1.6-2.8c0.5-0.8 0.2-2-0.6-2.5q-0.5-0.3-1-0.3z"/>
			<path class="s2" d="m35.9 22.3h-9.7l0.5 0.8c0.5 0.9 0.3 2-0.6 2.6q-0.4 0.3-1 0.3h14.1c1 0 1.9-0.8 1.9-1.9 0-1-0.9-1.8-1.9-1.8z"/>
			<path class="s3" d="m12.9 22.3h-3.2c-1.1 0-1.9 0.8-1.9 1.8 0 1.1 0.8 1.9 1.8 1.9h7.2c-1 0-1.8-0.8-1.8-1.9q0-0.5 0.3-1l0.5-0.8z"/>
			<path class="s4" d="m21 13.3l-2.2 3.8-3 5.2-0.5 0.8c-0.6 0.9-0.3 2 0.6 2.6 0.9 0.5 2 0.2 2.6-0.6q0-0.1 0-0.1l2.5-4.2 2.1-3.7 4.9-8.4-1.6-2.7c-0.3-0.6-0.4-1.4 0-2z"/>
			<path class="s5" d="m19.3 10.9q0 0.5-0.3 1l-1.6 2.7 1.4 2.5 2.2 3.7 2.4 4.2c0.4 0.6 1 1 1.7 1 1 0 1.9-0.8 1.9-1.9q0-0.5-0.3-1l-0.5-0.8-3.1-5.2-2.1-3.8-2-3.4q0.3 0.5 0.3 1z"/>
		</g>
	</g>
</svg>